<svg width="33" height="34" viewBox="0 0 33 34" fill="none" xmlns="http://www.w3.org/2000/svg">
<path d="M26.3438 33.6678H6.65625C3.04688 33.6678 0.09375 30.7147 0.09375 27.1053V7.41779C0.09375 3.80841 3.04688 0.855286 6.65625 0.855286H26.3438C29.9531 0.855286 32.9062 3.80841 32.9062 7.41779V27.1053C32.9062 30.7147 29.9531 33.6678 26.3438 33.6678Z" fill="url(#paint0_radial_524_836)"/>
<path d="M20.875 28.7459H12.125C8.1875 28.7459 5.01562 25.574 5.01562 21.6365V12.8865C5.01562 8.94904 8.1875 5.77716 12.125 5.77716H20.875C24.8125 5.77716 27.9844 8.94904 27.9844 12.8865V21.6365C27.9844 25.574 24.8125 28.7459 20.875 28.7459ZM12.125 6.87091C8.78906 6.87091 6.10938 9.5506 6.10938 12.8865V21.6365C6.10938 24.9725 8.78906 27.6522 12.125 27.6522H20.875C24.2109 27.6522 26.8906 24.9725 26.8906 21.6365V12.8865C26.8906 9.5506 24.2109 6.87091 20.875 6.87091H12.125Z" fill="white"/>
<path d="M16.5 23.2772C13.1641 23.2772 10.4844 20.5975 10.4844 17.2615C10.4844 13.9256 13.1641 11.2459 16.5 11.2459C19.8359 11.2459 22.5156 13.9256 22.5156 17.2615C22.5156 20.5975 19.8359 23.2772 16.5 23.2772ZM16.5 12.3397C13.7656 12.3397 11.5781 14.5272 11.5781 17.2615C11.5781 19.9959 13.7656 22.1834 16.5 22.1834C19.2344 22.1834 21.4219 19.9959 21.4219 17.2615C21.4219 14.5272 19.2344 12.3397 16.5 12.3397Z" fill="white"/>
<path d="M23.0625 12.3397C22.1328 12.3397 21.4219 11.6287 21.4219 10.699C21.4219 9.76935 22.1328 9.05841 23.0625 9.05841C23.9922 9.05841 24.7031 9.76935 24.7031 10.699C24.7031 11.6287 23.9922 12.3397 23.0625 12.3397ZM23.0625 10.1522C22.7344 10.1522 22.5156 10.3709 22.5156 10.699C22.5156 11.0272 22.7344 11.2459 23.0625 11.2459C23.3906 11.2459 23.6094 11.0272 23.6094 10.699C23.6094 10.3709 23.3906 10.1522 23.0625 10.1522Z" fill="white"/>
<defs>
<radialGradient id="paint0_radial_524_836" cx="0" cy="0" r="1" gradientUnits="userSpaceOnUse" gradientTransform="translate(2.55395 33.9406) rotate(-24.2685) scale(51.1377 41.4215)">
<stop stop-color="#F9ED32"/>
<stop offset="0.2555" stop-color="#F59F4F"/>
<stop offset="0.6535" stop-color="#EE2A7B"/>
<stop offset="0.6848" stop-color="#E32A81"/>
<stop offset="0.7394" stop-color="#C72A91"/>
<stop offset="0.8107" stop-color="#982AAB"/>
<stop offset="0.896" stop-color="#582ACE"/>
<stop offset="0.9922" stop-color="#072AFB"/>
<stop offset="1" stop-color="#002AFF"/>
</radialGradient>
</defs>
</svg>
