<svg width="20" height="21" viewBox="0 0 20 21" fill="none" xmlns="http://www.w3.org/2000/svg">
<g clip-path="url(#clip0_524_773)">
<path d="M7.63687 4.28573C6.6173 4.48463 5.69016 4.97803 4.95563 5.71252C4.22113 6.44705 3.72774 7.37424 3.52879 8.3938C3.44328 8.83169 3.7291 9.25603 4.16703 9.3415C4.605 9.42693 5.02926 9.14119 5.11469 8.70326C5.39547 7.26392 6.50695 6.15248 7.94628 5.87166C8.33199 5.79639 8.59964 5.45834 8.59964 5.07955C8.59964 5.02826 8.59476 4.97623 8.58453 4.92393C8.4991 4.48604 8.0748 4.2003 7.63687 4.28573Z" fill="#F6F6F7"/>
<path d="M7.69253 0.76206C5.73566 0.981943 3.8916 1.87038 2.50008 3.2637C1.10852 4.65697 0.222431 6.50217 0.0050093 8.45935C-0.0442484 8.9029 0.275321 9.30224 0.718758 9.3515C1.16223 9.40075 1.56165 9.08122 1.61094 8.63775C1.97961 5.31897 4.55469 2.74065 7.87304 2.36776C8.28577 2.32135 8.59077 1.97171 8.59077 1.56593C8.59077 1.53581 8.58909 1.5053 8.58566 1.47468C8.53577 1.03128 8.13597 0.712216 7.69253 0.76206Z" fill="#F6F6F7"/>
<path d="M12.21 3.84142C12.2097 3.84384 12.2094 3.84627 12.209 3.84869C12.106 4.63044 11.9139 5.40146 11.6389 6.13849C11.2877 7.07247 11.5142 8.13469 12.2159 8.84434C12.217 8.84544 12.2181 8.84653 12.2192 8.84758L12.889 9.51743C11.8373 11.1828 10.4262 12.5938 8.76093 13.6455L8.09105 12.9756C8.08995 12.9746 8.0889 12.9735 8.08781 12.9724C7.3782 12.2707 6.31609 12.0442 5.38379 12.3947C4.64496 12.6704 3.87391 12.8624 3.09215 12.9655C3.08969 12.9658 3.08719 12.9662 3.08473 12.9666C1.81606 13.1459 0.868562 14.2471 0.878991 15.527L0.878991 18.1592C0.87907 18.2351 0.882546 18.3121 0.889421 18.3879C1.01669 19.7964 2.2661 20.8387 3.67457 20.7114C3.67879 20.711 3.68297 20.7106 3.68719 20.7101C6.51351 20.41 9.26843 19.4348 11.6542 17.89C13.8597 16.4879 15.7662 14.5813 17.1684 12.3758C18.7077 10.0011 19.6828 7.25903 19.9885 4.44564C19.9891 4.44068 19.9896 4.43572 19.99 4.43079C19.9969 4.35419 20.0004 4.27654 20.0004 4.19951C20.0004 4.19627 20.0004 4.19306 20.0004 4.18986C19.9947 2.77564 18.8394 1.62978 17.4285 1.63553L14.8022 1.63553C13.5049 1.60877 12.3915 2.55529 12.21 3.84142ZM14.7932 3.25127L17.4318 3.25127C17.9551 3.24912 18.3825 3.67314 18.3846 4.19619C18.3845 4.22412 18.3836 4.25185 18.3813 4.27959C18.1015 6.84122 17.2127 9.3377 15.8106 11.4998C15.8093 11.5018 15.8079 11.5039 15.8066 11.5061C14.5301 13.515 12.7935 15.2516 10.7846 16.5281C10.7826 16.5294 10.7806 16.5306 10.7786 16.5319C8.60612 17.9393 6.09754 18.8282 3.5236 19.1026C3.00473 19.1465 2.54555 18.7617 2.49864 18.2425C2.49614 18.2144 2.49481 18.1861 2.49481 18.1587L2.49481 15.5234C2.49477 15.5177 2.49469 15.5119 2.49473 15.5061C2.49473 15.0365 2.84258 14.6341 3.30797 14.5669C4.20887 14.4477 5.09726 14.2262 5.95051 13.9078C6.2955 13.7782 6.68757 13.8614 6.95015 14.1198L8.06409 15.2338C8.3212 15.4909 8.71851 15.5446 9.03468 15.3648C11.3592 14.043 13.2865 12.1157 14.6083 9.79118C14.788 9.47501 14.7345 9.07774 14.4772 8.82055L13.3635 7.70681C13.1049 7.44431 13.0216 7.05192 13.152 6.70517C13.4697 5.85364 13.6912 4.96505 13.8104 4.06416C13.879 3.58838 14.2924 3.23908 14.7731 3.25103C14.7798 3.25119 14.7865 3.25127 14.7932 3.25127Z" fill="#F6F6F7"/>
</g>
<defs>
<clipPath id="clip0_524_773">
<rect width="20" height="20" fill="white" transform="translate(0 20.7394) rotate(-90)"/>
</clipPath>
</defs>
</svg>
