<svg width="36" height="36" viewBox="0 0 36 36" fill="none" xmlns="http://www.w3.org/2000/svg">
<g clip-path="url(#clip0_524_820)">
<path d="M18.166 0.262207C8.50096 0.262207 0.666016 8.09715 0.666016 17.7622C0.666016 27.4273 8.50096 35.2622 18.166 35.2622C27.8311 35.2622 35.666 27.4273 35.666 17.7622C35.666 8.09715 27.8311 0.262207 18.166 0.262207Z" fill="#40B3E0"/>
<path d="M26.6809 10.3288L23.5551 26.0882C23.5551 26.0882 23.118 27.1812 21.9159 26.6566L14.7029 21.1266L12.0801 19.8589L7.66487 18.3725C7.66487 18.3725 6.98729 18.1322 6.92166 17.6076C6.85604 17.083 7.68674 16.7989 7.68674 16.7989L25.2381 9.91372C25.2381 9.91372 26.6808 9.27989 26.6808 10.3291" fill="white"/>
<path d="M14.1486 25.911C14.1486 25.911 13.9381 25.8914 13.6756 25.0607C13.4135 24.2301 12.0801 19.8586 12.0801 19.8586L22.681 13.1266C22.681 13.1266 23.2931 12.755 23.2712 13.1266C23.2712 13.1266 23.3804 13.1922 23.0524 13.4982C22.7247 13.8043 14.7249 20.9953 14.7249 20.9953" fill="#D2E5F1"/>
<path d="M17.4694 23.2467L14.6164 25.8479C14.6164 25.8479 14.3933 26.0171 14.1494 25.911L14.6957 21.0794" fill="#B5CFE4"/>
</g>
<defs>
<clipPath id="clip0_524_820">
<rect width="35" height="35" fill="white" transform="translate(0.666016 0.262207)"/>
</clipPath>
</defs>
</svg>
