<svg width="36" height="36" viewBox="0 0 36 36" fill="none" xmlns="http://www.w3.org/2000/svg">
<rect x="0.666016" y="0.262207" width="35" height="35" rx="10" fill="url(#paint0_linear_524_828)"/>
<g clip-path="url(#clip0_524_828)">
<path d="M17.533 5.15138C15.5083 5.17582 11.1554 5.50853 8.72072 7.74215C6.9097 9.53661 6.27739 12.1897 6.20327 15.4703C6.14178 18.7391 6.06766 24.8778 11.9848 26.5493V29.0951C11.9848 29.0951 11.9478 30.1138 12.6211 30.3227C13.4505 30.5852 13.9228 29.8015 14.7112 28.9595L16.1816 27.2967C20.2302 27.6334 23.3311 26.8576 23.6882 26.7425C24.5098 26.4799 29.137 25.8886 29.8931 19.7491C30.669 13.4086 29.5155 9.41361 27.4332 7.60654H27.4206C26.7923 7.02783 24.2669 5.18764 18.6249 5.16714C18.6249 5.16714 18.2063 5.13876 17.533 5.15059V5.15138ZM17.6024 6.93401C18.1771 6.93007 18.5264 6.95451 18.5264 6.95451C23.3019 6.96712 25.5812 8.40443 26.1189 8.88852C27.8724 10.3913 28.7759 13.9928 28.1144 19.2863C27.4861 24.419 23.7332 24.7438 23.0386 24.9653C22.7429 25.0599 20.0118 25.7333 16.5711 25.5117C16.5711 25.5117 14.0087 28.6039 13.2077 29.4002C13.0807 29.5398 12.9325 29.5808 12.8379 29.5603C12.7023 29.5272 12.6613 29.3592 12.6692 29.129L12.6936 24.9038C7.67527 23.5162 7.97093 18.2803 8.02454 15.5452C8.08604 12.8102 8.5993 10.5726 10.1273 9.05724C12.1843 7.19734 15.8804 6.94662 17.6008 6.93401H17.6024ZM17.9808 9.66827C17.9395 9.66786 17.8985 9.67562 17.8602 9.69112C17.8219 9.70661 17.7871 9.72953 17.7577 9.75855C17.7283 9.78758 17.705 9.82213 17.689 9.86022C17.673 9.89831 17.6647 9.93919 17.6646 9.98049C17.6646 10.1571 17.8081 10.2967 17.9808 10.2967C18.7625 10.2818 19.5395 10.4218 20.2668 10.7087C20.9941 10.9956 21.6575 11.4236 22.2186 11.9681C23.3642 13.0806 23.9224 14.5754 23.9437 16.53C23.9437 16.7026 24.0832 16.8461 24.2598 16.8461V16.8335C24.3431 16.8337 24.423 16.801 24.4822 16.7425C24.5415 16.684 24.5752 16.6045 24.576 16.5213C24.6143 15.6013 24.4651 14.6832 24.1375 13.8226C23.8099 12.9621 23.3107 12.1772 22.6704 11.5156C21.4223 10.2959 19.8407 9.66749 17.9808 9.66749V9.66827ZM13.825 10.3913C13.6018 10.3587 13.3742 10.4035 13.1801 10.5182H13.1635C12.7127 10.7824 12.3067 11.1164 11.9604 11.5077C11.6726 11.8404 11.5165 12.177 11.4755 12.5011C11.451 12.6943 11.4676 12.8874 11.5252 13.0719L11.5457 13.0845C11.8697 14.0369 12.2931 14.9531 12.8103 15.8156C13.4765 17.0274 14.2964 18.1481 15.2497 19.1499L15.2781 19.1909L15.323 19.224L15.3514 19.2571L15.3845 19.2855C16.3899 20.2415 17.5133 21.0653 18.7274 21.7367C20.1151 22.492 20.9571 22.8492 21.4625 22.9974V23.0053C21.6107 23.0502 21.7455 23.0707 21.8811 23.0707C22.3119 23.0392 22.7196 22.8643 23.0393 22.574C23.4288 22.2277 23.7591 21.8199 24.017 21.367V21.3591C24.259 20.9034 24.177 20.4721 23.8278 20.1804C23.1283 19.5689 22.3719 19.0259 21.5689 18.5586C21.0312 18.2669 20.4848 18.4435 20.2633 18.7391L19.791 19.3344C19.549 19.6301 19.109 19.5891 19.109 19.5891L19.0964 19.5969C15.8158 18.7588 14.9406 15.4372 14.9406 15.4372C14.9406 15.4372 14.8996 14.9854 15.2032 14.7552L15.7945 14.279C16.0775 14.0488 16.2746 13.5032 15.9711 12.9647C15.507 12.1606 14.9651 11.404 14.3532 10.7058C14.2195 10.5412 14.0318 10.4293 13.8234 10.3897L13.825 10.3913ZM18.5264 11.3279C18.1077 11.3279 18.1077 11.9602 18.5303 11.9602C19.0509 11.9687 19.5647 12.0796 20.0424 12.2867C20.5201 12.4939 20.9523 12.7931 21.3143 13.1673C21.6445 13.5316 21.8982 13.9584 22.0605 14.4225C22.2227 14.8866 22.2902 15.3786 22.2588 15.8693C22.2602 15.9523 22.2941 16.0315 22.3532 16.0898C22.4123 16.1482 22.4919 16.1811 22.575 16.1815L22.5876 16.198C22.6712 16.1974 22.7513 16.1639 22.8104 16.1047C22.8696 16.0456 22.9031 15.9655 22.9037 15.8819C22.9321 14.6291 22.5426 13.5781 21.7786 12.736C21.0107 11.894 19.9392 11.4217 18.5713 11.3279H18.5264V11.3279ZM19.0444 13.0278C18.6131 13.0151 18.5966 13.6601 19.0239 13.6727C20.063 13.7263 20.5676 14.2514 20.6339 15.3315C20.6353 15.4135 20.6688 15.4917 20.7271 15.5493C20.7855 15.6069 20.8641 15.6394 20.9461 15.6398H20.9587C21.0008 15.638 21.0422 15.6278 21.0804 15.6099C21.1186 15.5919 21.1528 15.5665 21.1811 15.5351C21.2093 15.5038 21.231 15.4672 21.245 15.4273C21.2589 15.3875 21.2648 15.3453 21.2622 15.3032C21.1881 13.895 20.4202 13.1019 19.057 13.0286H19.0444V13.0278Z" fill="white"/>
</g>
<defs>
<linearGradient id="paint0_linear_524_828" x1="18.166" y1="-8.63173" x2="18.166" y2="35.2622" gradientUnits="userSpaceOnUse">
<stop stop-color="#8F48B2"/>
<stop offset="0.991935" stop-color="#552E81"/>
</linearGradient>
<clipPath id="clip0_524_828">
<rect width="25.2297" height="25.2297" fill="white" transform="translate(5.55078 5.14743)"/>
</clipPath>
</defs>
</svg>
