<svg width="36" height="36" viewBox="0 0 36 36" fill="none" xmlns="http://www.w3.org/2000/svg">
<g clip-path="url(#clip0_524_825)">
<path d="M9.91637 30.2383L10.4885 30.5211C12.8729 31.9351 15.5432 32.5949 18.2136 32.5949C26.606 32.5949 33.4726 25.8079 33.4726 17.5126C33.4726 13.5536 31.8513 9.68871 28.9903 6.86073C26.1292 4.03276 22.3143 2.43033 18.2136 2.43033C9.82108 2.43033 2.95438 9.21735 3.04981 17.6069C3.04981 20.4348 3.90813 23.1686 5.33862 25.5251L5.72007 26.0907L4.19428 31.6524L9.91637 30.2383Z" fill="#00E676"/>
<path d="M30.6119 5.35248C27.3694 2.05329 22.8871 0.262207 18.3093 0.262207C8.58176 0.262207 0.761445 8.08613 0.856738 17.6068C0.856738 20.6233 1.71506 23.5456 3.14568 26.1849L0.666016 35.14L9.91682 32.7834C12.4918 34.1975 15.3528 34.8573 18.214 34.8573C27.8463 34.8573 35.6666 27.0333 35.6666 17.5127C35.6666 12.8937 33.8545 8.55748 30.6121 5.35248H30.6119ZM18.3093 31.9352C15.7343 31.9352 13.1594 31.2754 10.9659 29.9557L10.3937 29.6729L4.86232 31.0868L6.29281 25.7138L5.91137 25.1482C1.71506 18.4555 3.71785 9.59437 10.5844 5.44667C17.451 1.2991 26.3203 3.27869 30.5166 10.0657C34.7128 16.8527 32.71 25.6194 25.8436 29.7671C23.6499 31.181 20.9797 31.935 18.3093 31.935V31.9352ZM26.7018 21.4719L25.6527 21.0006C25.6527 21.0006 24.127 20.3407 23.1732 19.8694C23.0778 19.8694 22.9825 19.775 22.8871 19.775C22.6009 19.775 22.4102 19.8694 22.2195 19.9637C22.2195 19.9637 22.1242 20.0579 20.789 21.5661C20.6935 21.7546 20.5028 21.849 20.3121 21.849H20.2167C20.1214 21.849 19.9306 21.7546 19.8352 21.6604L19.3583 21.4719C18.3093 21.0006 17.3557 20.4349 16.5927 19.6809C16.4019 19.4923 16.1158 19.3038 15.9251 19.1153C15.2575 18.4554 14.5899 17.7013 14.1131 16.8529L14.0177 16.6644C13.9224 16.57 13.9224 16.4759 13.827 16.2873C13.827 16.0988 13.827 15.9103 13.9224 15.816C13.9224 15.816 14.3038 15.3446 14.5899 15.0619C14.7807 14.8733 14.876 14.5906 15.0667 14.4021C15.2575 14.1192 15.3529 13.7422 15.2575 13.4594C15.1622 12.988 14.0177 10.4429 13.7317 9.87734C13.5408 9.5945 13.3502 9.50031 13.0641 9.40599H12.015C11.8242 9.40599 11.6336 9.50031 11.4427 9.50031L11.3473 9.5945C11.1566 9.68883 10.9659 9.87734 10.7751 9.97153C10.5844 10.1602 10.489 10.3486 10.2983 10.5372C9.63067 11.3856 9.24922 12.4225 9.24922 13.4594C9.24922 14.2134 9.43994 14.9676 9.72609 15.6275L9.82152 15.9103C10.6798 17.7013 11.8242 19.3038 13.3502 20.7177L13.7317 21.0948C14.0177 21.3776 14.3038 21.5661 14.4946 21.8488C16.4974 23.5457 18.7862 24.7711 21.3611 25.431C21.6473 25.5252 22.0287 25.5252 22.3149 25.6195H23.2685C23.7454 25.6195 24.3175 25.431 24.6991 25.2425C24.9851 25.054 25.1759 25.054 25.3666 24.8654L25.5574 24.6768C25.7482 24.4883 25.9389 24.3941 26.1296 24.2056C26.3203 24.0171 26.5111 23.8286 26.6065 23.6399C26.7972 23.2629 26.8925 22.7915 26.9879 22.3203V21.6604C26.9879 21.6604 26.8925 21.5661 26.7018 21.4719V21.4719Z" fill="white"/>
</g>
<defs>
<clipPath id="clip0_524_825">
<rect width="35" height="35" fill="white" transform="translate(0.666016 0.262207)"/>
</clipPath>
</defs>
</svg>
