<svg width="144" height="51" viewBox="0 0 144 51" fill="none" xmlns="http://www.w3.org/2000/svg">
<path d="M62.9356 22.4164H59.0236L55.8796 16.7284H53.3836V22.4164H49.9756V6.40835H57.4636C59.1116 6.40835 60.4156 6.88835 61.3756 7.84835C62.3516 8.80835 62.8396 10.0484 62.8396 11.5684C62.8396 12.8804 62.4956 13.9444 61.8076 14.7604C61.1356 15.5764 60.3116 16.0964 59.3356 16.3204L62.9356 22.4164ZM56.9596 13.7284C57.6636 13.7284 58.2396 13.5364 58.6876 13.1524C59.1356 12.7524 59.3596 12.2244 59.3596 11.5684C59.3596 10.9124 59.1356 10.3924 58.6876 10.0084C58.2396 9.60835 57.6636 9.40835 56.9596 9.40835H53.3836V13.7284H56.9596ZM74.4389 20.9524C73.3189 22.1204 71.8309 22.7044 69.9749 22.7044C68.1189 22.7044 66.6309 22.1204 65.5109 20.9524C64.4069 19.7684 63.8549 18.3204 63.8549 16.6084C63.8549 14.8964 64.4069 13.4564 65.5109 12.2884C66.6309 11.1204 68.1189 10.5364 69.9749 10.5364C71.8309 10.5364 73.3189 11.1204 74.4389 12.2884C75.5589 13.4564 76.1189 14.8964 76.1189 16.6084C76.1189 18.3204 75.5589 19.7684 74.4389 20.9524ZM67.8149 19.0324C68.3429 19.6724 69.0629 19.9924 69.9749 19.9924C70.8869 19.9924 71.6069 19.6724 72.1349 19.0324C72.6789 18.3764 72.9509 17.5684 72.9509 16.6084C72.9509 15.6644 72.6789 14.8724 72.1349 14.2324C71.6069 13.5764 70.8869 13.2484 69.9749 13.2484C69.0629 13.2484 68.3429 13.5764 67.8149 14.2324C67.2869 14.8724 67.0229 15.6644 67.0229 16.6084C67.0229 17.5684 67.2869 18.3764 67.8149 19.0324ZM82.5562 22.7044C81.5482 22.7044 80.5802 22.5444 79.6522 22.2244C78.7402 21.9044 77.9802 21.4644 77.3722 20.9044L78.6922 18.7684C79.1402 19.1844 79.7482 19.5524 80.5162 19.8724C81.2842 20.1924 82.0122 20.3524 82.7002 20.3524C83.3402 20.3524 83.8202 20.2404 84.1402 20.0164C84.4762 19.7924 84.6442 19.4884 84.6442 19.1044C84.6442 18.8164 84.4682 18.5844 84.1162 18.4084C83.7802 18.2164 83.3562 18.0804 82.8442 18.0004C82.3482 17.9204 81.7962 17.8004 81.1882 17.6404C80.5962 17.4804 80.0442 17.2884 79.5322 17.0644C79.0362 16.8404 78.6122 16.4884 78.2602 16.0084C77.9242 15.5124 77.7562 14.9044 77.7562 14.1844C77.7562 13.1604 78.1802 12.2964 79.0282 11.5924C79.8762 10.8884 81.0362 10.5364 82.5082 10.5364C84.3002 10.5364 85.8602 11.0644 87.1882 12.1204L85.9642 14.2084C85.5962 13.8244 85.1002 13.5044 84.4762 13.2484C83.8682 12.9924 83.2202 12.8644 82.5322 12.8644C81.9882 12.8644 81.5482 12.9764 81.2122 13.2004C80.8762 13.4084 80.7082 13.6804 80.7082 14.0164C80.7082 14.2724 80.8762 14.4884 81.2122 14.6644C81.5482 14.8244 81.9722 14.9444 82.4842 15.0244C82.9962 15.1044 83.5482 15.2324 84.1402 15.4084C84.7322 15.5684 85.2842 15.7684 85.7962 16.0084C86.3082 16.2324 86.7322 16.6004 87.0682 17.1124C87.4042 17.6244 87.5722 18.2484 87.5722 18.9844C87.5722 20.0724 87.1242 20.9684 86.2282 21.6724C85.3482 22.3604 84.1242 22.7044 82.5562 22.7044ZM93.7057 22.7044C92.6337 22.7044 91.8177 22.4324 91.2577 21.8884C90.6977 21.3444 90.4177 20.5604 90.4177 19.5364V13.4884H88.4977V10.8244H90.4177V7.65635H93.4897V10.8244H95.8417V13.4884H93.4897V18.7204C93.4897 19.0884 93.5857 19.3924 93.7777 19.6324C93.9697 19.8724 94.2257 19.9924 94.5457 19.9924C95.0257 19.9924 95.3777 19.8804 95.6017 19.6564L96.2497 21.9604C95.6897 22.4564 94.8417 22.7044 93.7057 22.7044ZM102.895 17.9044H97.135V15.3124H102.895V17.9044ZM120.122 22.4164H116.234L115.25 19.7044H108.386L107.378 22.4164H103.49L109.682 6.40835H113.954L120.122 22.4164ZM114.314 16.7044L111.818 9.81635L109.322 16.7044H114.314ZM124.577 22.4164H121.529V10.8244H124.577V12.4084C125.009 11.8644 125.561 11.4164 126.233 11.0644C126.905 10.7124 127.585 10.5364 128.273 10.5364V13.5124C128.065 13.4644 127.785 13.4404 127.433 13.4404C126.921 13.4404 126.377 13.5684 125.801 13.8244C125.225 14.0804 124.817 14.3924 124.577 14.7604V22.4164ZM134.065 22.7044C132.993 22.7044 132.177 22.4324 131.617 21.8884C131.057 21.3444 130.777 20.5604 130.777 19.5364V13.4884H128.857V10.8244H130.777V7.65635H133.849V10.8244H136.201V13.4884H133.849V18.7204C133.849 19.0884 133.945 19.3924 134.137 19.6324C134.329 19.8724 134.585 19.9924 134.905 19.9924C135.385 19.9924 135.737 19.8804 135.961 19.6564L136.609 21.9604C136.049 22.4564 135.201 22.7044 134.065 22.7044Z" fill="#0CB408"/>
<path d="M53.7736 44.6324C51.7096 44.6324 50.0836 43.9964 48.8956 42.7244L50.0656 41.1044C51.0976 42.2084 52.3636 42.7604 53.8636 42.7604C54.6676 42.7604 55.2676 42.5984 55.6636 42.2744C56.0716 41.9504 56.2756 41.5664 56.2756 41.1224C56.2756 40.6664 56.0356 40.3064 55.5556 40.0424C55.0756 39.7664 54.4936 39.5504 53.8096 39.3944C53.1256 39.2384 52.4356 39.0524 51.7396 38.8364C51.0556 38.6204 50.4736 38.2544 49.9936 37.7384C49.5136 37.2224 49.2736 36.5564 49.2736 35.7404C49.2736 34.7324 49.6756 33.8984 50.4796 33.2384C51.2956 32.5664 52.3516 32.2304 53.6476 32.2304C55.4956 32.2304 56.9956 32.7884 58.1476 33.9044L56.9416 35.4704C56.0296 34.5584 54.8716 34.1024 53.4676 34.1024C52.8436 34.1024 52.3456 34.2404 51.9736 34.5164C51.6136 34.7804 51.4336 35.1404 51.4336 35.5964C51.4336 35.8964 51.5596 36.1484 51.8116 36.3524C52.0756 36.5564 52.4116 36.7244 52.8196 36.8564C53.2276 36.9764 53.6776 37.0964 54.1696 37.2164C54.6736 37.3364 55.1716 37.4864 55.6636 37.6664C56.1676 37.8344 56.6236 38.0444 57.0316 38.2964C57.4396 38.5484 57.7696 38.8964 58.0216 39.3404C58.2856 39.7844 58.4176 40.3124 58.4176 40.9244C58.4176 42.0044 58.0276 42.8924 57.2476 43.5884C56.4676 44.2844 55.3096 44.6324 53.7736 44.6324ZM62.6494 44.6324C61.9174 44.6324 61.3594 44.4404 60.9754 44.0564C60.6034 43.6724 60.4174 43.1204 60.4174 42.4004V37.3784H58.9774V35.7224H60.4174V33.3464H62.3074V35.7224H64.0714V37.3784H62.3074V41.9324C62.3074 42.2444 62.3794 42.4964 62.5234 42.6884C62.6674 42.8684 62.8714 42.9584 63.1354 42.9584C63.5194 42.9584 63.8014 42.8564 63.9814 42.6524L64.4314 44.0744C64.0354 44.4464 63.4414 44.6324 62.6494 44.6324ZM73.5455 44.4164H71.6555V43.2644C70.8395 44.1764 69.8135 44.6324 68.5775 44.6324C66.7175 44.6324 65.7875 43.7144 65.7875 41.8784V35.7224H67.6775V41.1944C67.6775 41.8304 67.8275 42.2864 68.1275 42.5624C68.4275 42.8264 68.8595 42.9584 69.4235 42.9584C69.8795 42.9584 70.3055 42.8504 70.7015 42.6344C71.0975 42.4184 71.4155 42.1484 71.6555 41.8244V35.7224H73.5455V44.4164ZM84.0104 44.4164H82.1204V43.2284C81.4004 44.1644 80.4704 44.6324 79.3304 44.6324C78.1904 44.6324 77.2604 44.2244 76.5404 43.4084C75.8204 42.5924 75.4604 41.4824 75.4604 40.0784C75.4604 38.6864 75.8204 37.5764 76.5404 36.7484C77.2604 35.9204 78.1904 35.5064 79.3304 35.5064C80.4704 35.5064 81.4004 35.9804 82.1204 36.9284V32.4104H84.0104V44.4164ZM79.8704 42.9584C80.3144 42.9584 80.7464 42.8504 81.1664 42.6344C81.5864 42.4184 81.9044 42.1424 82.1204 41.8064V38.3504C81.9044 38.0144 81.5864 37.7384 81.1664 37.5224C80.7464 37.2944 80.3144 37.1804 79.8704 37.1804C79.1264 37.1804 78.5324 37.4504 78.0884 37.9904C77.6444 38.5304 77.4224 39.2264 77.4224 40.0784C77.4224 40.9304 77.6444 41.6264 78.0884 42.1664C78.5324 42.6944 79.1264 42.9584 79.8704 42.9584ZM87.3954 34.6604C87.0834 34.6604 86.8074 34.5464 86.5674 34.3184C86.3394 34.0904 86.2254 33.8144 86.2254 33.4904C86.2254 33.1664 86.3394 32.8904 86.5674 32.6624C86.8074 32.4344 87.0834 32.3204 87.3954 32.3204C87.7194 32.3204 87.9954 32.4344 88.2234 32.6624C88.4514 32.8904 88.5654 33.1664 88.5654 33.4904C88.5654 33.8144 88.4514 34.0904 88.2234 34.3184C87.9954 34.5464 87.7194 34.6604 87.3954 34.6604ZM88.3494 44.4164H86.4594V35.7224H88.3494V44.4164ZM94.7251 44.6324C93.3811 44.6324 92.3011 44.1944 91.4851 43.3184C90.6691 42.4304 90.2611 41.3444 90.2611 40.0604C90.2611 38.7764 90.6691 37.6964 91.4851 36.8204C92.3011 35.9444 93.3811 35.5064 94.7251 35.5064C96.0811 35.5064 97.1671 35.9444 97.9831 36.8204C98.7991 37.6964 99.2071 38.7764 99.2071 40.0604C99.2071 41.3564 98.7991 42.4424 97.9831 43.3184C97.1671 44.1944 96.0811 44.6324 94.7251 44.6324ZM94.7251 42.9584C95.5051 42.9584 96.1171 42.6824 96.5611 42.1304C97.0171 41.5664 97.2451 40.8764 97.2451 40.0604C97.2451 39.2564 97.0171 38.5784 96.5611 38.0264C96.1171 37.4624 95.5051 37.1804 94.7251 37.1804C93.9571 37.1804 93.3451 37.4624 92.8891 38.0264C92.4451 38.5784 92.2231 39.2564 92.2231 40.0604C92.2231 40.8764 92.4451 41.5664 92.8891 42.1304C93.3451 42.6824 93.9571 42.9584 94.7251 42.9584Z" fill="white" fill-opacity="0.7"/>
<path d="M24.3183 32.0193L28.154 27.959V48.3414H21.7467L21.666 29.9479L24.3183 32.0193Z" fill="#00192F" stroke="#00192F"/>
<path d="M1.71908 29.6363L14.435 15.6568L23.5062 24.3769L24.2665 25.1078L24.956 24.3097L37.0657 10.2913L37.6918 9.56644L36.9946 8.90967L35.3535 7.36365L42.047 4.81919L24.1437 25.6555L15.094 16.6058L14.3324 15.8442L13.6293 16.6602L2.09278 30.051L1.71908 29.6363Z" fill="#0CB408" stroke="#0CB408" stroke-width="2" stroke-linecap="round"/>
<path d="M2.40591 31.1652L14.5038 17.9084L23.904 27.2658L24.2842 27.6442L24.635 27.2385L44.4035 4.37401L42.1791 13.9742L40.1078 12.1061L39.7302 11.7655L39.396 12.1488L24.2092 29.5679L14.8588 20.3505L14.4885 19.9855L14.1383 20.3697L3.33864 32.2172L2.40591 31.1652Z" fill="#119C0E" stroke="#119C0E"/>
<path d="M3.32139 34.3582L0.575195 31.4964V48.3465H6.54518V31.2674L3.32139 34.3582Z" fill="#034178" stroke="#034178"/>
<path d="M12.989 24.5476L6.74414 31.1523V48.3465H12.989V24.5476Z" fill="#00192F" stroke="#00192F"/>
<path d="M21.7988 30.0875L15.5088 24.3106L15.538 48.3465H21.7988V30.0875Z" fill="#034178" stroke="#034178"/>
<path d="M36.8132 18.3593L30.4639 25.2021L30.4639 48.3414H36.8132V18.3593Z" fill="#034178" stroke="#034178"/>
<path d="M43.4563 18.0285H37.2148V48.3465H43.4563V18.0285Z" fill="#00192F" stroke="#00192F"/>
</svg>
