<svg width="30" height="30" viewBox="0 0 30 30" fill="none" xmlns="http://www.w3.org/2000/svg">
    <path d="m28.672 24.1-6.045-6.045a.77.77 0 0 0-.537-.225.762.762 0 0 0-.537.225l-1.28 1.298-1.27-1.27a10.552 10.552 0 0 0 2.599-6.962c0-2.842-1.104-5.508-3.116-7.52-4.14-4.14-10.888-4.14-15.029 0a10.555 10.555 0 0 0-3.115 7.52c0 2.842 1.103 5.508 3.115 7.52a10.601 10.601 0 0 0 7.52 3.105c2.49 0 4.97-.87 6.962-2.598l1.27 1.27-1.29 1.289a.77.77 0 0 0-.224.537c0 .205.078.39.225.537l6.045 6.045a3.318 3.318 0 0 0 2.353.977c.889 0 1.729-.342 2.354-.977a3.318 3.318 0 0 0 .976-2.354c0-.908-.341-1.738-.976-2.373zm-11.24-6.534c-3.555 3.555-9.346 3.555-12.9 0a9.074 9.074 0 0 1-2.677-6.445c0-2.432.948-4.727 2.676-6.445a9.087 9.087 0 0 1 6.446-2.666c2.333 0 4.668.888 6.445 2.666a9.074 9.074 0 0 1 2.676 6.445 9.064 9.064 0 0 1-2.666 6.445zm2.09 4.668 2.578-2.578 1.074 1.074-2.578 2.578-1.075-1.074zm8.085 5.518c-.341.342-.8.537-1.289.537-.488 0-.947-.186-1.289-.537l-3.369-3.37 2.578-2.577 3.37 3.369c.341.341.537.8.537 1.289 0 .478-.196.937-.538 1.289z" fill="#fff"/>
</svg>
