<svg xmlns="http://www.w3.org/2000/svg" width="65" height="55" viewBox="0 0 65 55" xml:space="preserve">
    <g transform="translate(2 1)" fill="none" stroke="#fff" stroke-width="2">
        <path d="M61 42.1H9.9V1c0-.5-.4-1-1-1h-3c-.5 0-1 .4-1 1v41.1h-4c-.5 0-1 .4-1 1v3c0 .5.4 1 1 1h4v4c0 .5.4 1 1 1h3c.5 0 1-.4 1-1v-4H61c.5 0 1-.4 1-1v-3c0-.6-.5-1-1-1zM55 28l-9.5-9.5M41 18l-7.5 9.5M29 27 17.5 15.5"/>
        <circle cx="57" cy="30" r="3"/>
        <circle cx="43" cy="16" r="3"/>
        <circle cx="31" cy="30" r="3"/>
        <circle cx="16" cy="14" r="3"/>
    </g>
</svg>
