<svg xmlns="http://www.w3.org/2000/svg" viewBox="0 0 512 512">
    <path d="M436 484.53a5.58 5.58 0 0 0 5.58-5.59v-324.6a5.58 5.58 0 0 0-5.58-5.58h-63.19a5.58 5.58 0 0 0-5.58 5.58v324.6a5.58 5.58 0 0 0 5.58 5.59zm-57.61-324.61h52.05v313.44h-52.05zM266.14 484.53a5.59 5.59 0 0 0 5.59-5.59V319.43a5.58 5.58 0 0 0-5.59-5.58h-63.21a5.58 5.58 0 0 0-5.58 5.58v159.51a5.58 5.58 0 0 0 5.58 5.59zM208.52 325h52v148.36h-52zM33.06 484.53h63.21a5.58 5.58 0 0 0 5.58-5.59v-70.32a5.58 5.58 0 0 0-5.58-5.62H33.06a5.58 5.58 0 0 0-5.59 5.58v70.32a5.59 5.59 0 0 0 5.59 5.63zm5.58-70.33h52v59.16h-52zM461.09 27.47H347.74a23.08 23.08 0 1 0 0 46.16h3a5.58 5.58 0 0 0 0-11.16h-3a11.92 11.92 0 1 1 0-23.83h19.49v33.12a36.92 36.92 0 0 0 31.6 36.49v22.11a5.59 5.59 0 1 0 11.17 0v-22.11a36.92 36.92 0 0 0 31.6-36.49V38.64h19.49a11.92 11.92 0 1 1 0 23.83h-3a5.58 5.58 0 1 0 0 11.16h3a23.08 23.08 0 1 0 0-46.16zm-30.65 44.29a25.74 25.74 0 0 1-25.71 25.71h-.63a25.74 25.74 0 0 1-25.71-25.71V38.64h52.05zM56.46 355.79a5.56 5.56 0 0 0 3.95-1.63L167 247.61a20.49 20.49 0 0 1 28.93 0 31.66 31.66 0 0 0 44.65.06l50.21-49.92c.13-.13.24-.29.36-.43s.25-.28.35-.43.2-.37.29-.55.16-.28.22-.42a5.16 5.16 0 0 0 .2-.67c0-.12.08-.24.11-.37s.05-.47.07-.71 0-.23 0-.35a5.51 5.51 0 0 0-.06-.7v-.37a4.71 4.71 0 0 0-.19-.64c0-.13-.06-.27-.11-.39a5.77 5.77 0 0 0-.29-.55 4.37 4.37 0 0 0-.22-.43c-.11-.15-.24-.29-.36-.44a5 5 0 0 0-.35-.43l-12.2-12.17 33.19-8.91-8.95 33.33a5.58 5.58 0 0 0-7 8.64l5.95 6a5.57 5.57 0 0 0 3.95 1.63 5.48 5.48 0 0 0 1.44-.19 5.58 5.58 0 0 0 3.95-3.94l13.92-51.87a5.58 5.58 0 0 0-6.84-6.84l-51.87 13.92a5.58 5.58 0 0 0-2.5 9.34l15 15-46.24 46a20.5 20.5 0 0 1-28.89 0 31.64 31.64 0 0 0-44.71 0L52.51 346.26a5.58 5.58 0 0 0 4 9.53z" fill="#fff"/>
</svg>
