<svg height="32" viewBox="0 0 32 32" width="32" xml:space="preserve" xmlns="http://www.w3.org/2000/svg">
    <g fill="#fff">
        <circle cx="7.5" cy="4.5" r=".5"/>
        <circle cx="5.5" cy="4.5" r=".5"/>
        <circle cx="3.5" cy="4.5" r=".5"/>
        <path d="M30.5 7h-29a.5.5 0 0 1 0-1h29a.5.5 0 0 1 0 1z"/>
        <path d="M29.5 28h-4a.5.5 0 0 1 0-1h4c.275 0 .5-.225.5-.5v-23c0-.275-.225-.5-.5-.5h-27c-.275 0-.5.225-.5.5v23c0 .275.225.5.5.5h4a.5.5 0 0 1 0 1h-4c-.827 0-1.5-.673-1.5-1.5v-23C1 2.673 1.673 2 2.5 2h27c.827 0 1.5.673 1.5 1.5v23c0 .827-.673 1.5-1.5 1.5z"/>
    </g>
    <path d="M22.625 30.044a.512.512 0 0 1-.222-.052L16 26.818l-6.403 3.174a.5.5 0 0 1-.717-.521l1.04-7.07-4.998-5.11a.499.499 0 0 1 .274-.843l7.047-1.197.898-1.716a.506.506 0 0 1 .676-.211.502.502 0 0 1 .211.676l-1.014 1.935a.506.506 0 0 1-.359.261l-6.35 1.079 4.503 4.604c.109.111.16.268.138.422l-.937 6.371 5.77-2.859a.507.507 0 0 1 .443 0l5.77 2.859-.937-6.371a.5.5 0 0 1 .138-.422l4.503-4.604-6.35-1.079a.503.503 0 0 1-.359-.261L16 10.23l-.728 1.391a.5.5 0 0 1-.887-.463l1.171-2.237c.174-.329.713-.33.887-.001l3.314 6.331 7.047 1.197a.5.5 0 0 1 .274.843l-4.998 5.11 1.04 7.07a.504.504 0 0 1-.495.573z" fill="#fff"/>
</svg>
